<?xml version="1.0" encoding="UTF-8"?>
<svg viewBox="0 0 110 140" xmlns="http://www.w3.org/2000/svg" xmlns:xlink="http://www.w3.org/1999/xlink">
 <defs>
  <filter id="j">
   <feGaussianBlur stdDeviation="1.01835"/>
  </filter>
  <filter id="i">
   <feGaussianBlur stdDeviation=".89205"/>
  </filter>
  <filter id="b" x="-.16364" y="-.16364" width="1.3273" height="1.3273">
   <feGaussianBlur stdDeviation="1.59464"/>
  </filter>
  <filter id="h" x="-.02821" y="-.12162" width="1.0564" height="1.2432">
   <feGaussianBlur stdDeviation="1.73213"/>
  </filter>
  <linearGradient id="a">
   <stop stop-color="#f60" offset="0"/>
   <stop stop-color="#f60" stop-opacity="0" offset="1"/>
  </linearGradient>
  <linearGradient id="g" x1="655.69" x2="662.08" y1="76.557" y2="37.691" gradientUnits="userSpaceOnUse">
   <stop stop-color="#e2b08f" offset="0"/>
   <stop stop-color="#e2b08f" stop-opacity="0" offset="1"/>
  </linearGradient>
  <linearGradient id="f" x1="708.4" x2="692.74" y1="42.636" y2="64.652" gradientUnits="userSpaceOnUse">
   <stop stop-color="#ff2a2a" offset="0"/>
   <stop stop-color="#ff2a2a" stop-opacity="0" offset="1"/>
  </linearGradient>
  <linearGradient id="c" x1="-162.12" x2="-161.18" y1="213.13" y2="249.27" gradientUnits="userSpaceOnUse">
   <stop stop-color="#d35f5f" offset="0"/>
   <stop stop-color="#d35f5f" stop-opacity="0" offset="1"/>
  </linearGradient>
  <linearGradient id="e" x1="650.66" x2="660.98" y1="36.765" y2="37.41" gradientUnits="userSpaceOnUse" xlink:href="#a"/>
  <linearGradient id="d" x1="645.77" x2="636.69" y1="39.7" y2="43.614" gradientUnits="userSpaceOnUse" xlink:href="#a"/>
 </defs>
 <path transform="matrix(.55869 .04843 -.03782 1.3383 153.71 -201.41)" d="m-88.553 238.01a73.386 16.634 0 1 1 -146.77 0 73.386 16.634 0 1 1 146.77 0z" fill="#a02c2c" fill-rule="evenodd" filter="url(#j)"/>
 <path transform="matrix(.53308 .04094 -.03608 1.1312 149.18 -153.63)" d="m-88.553 238.01a73.386 16.634 0 1 1 -146.77 0 73.386 16.634 0 1 1 146.77 0z" fill="#782121" fill-rule="evenodd" filter="url(#i)"/>
 <path transform="matrix(.53582 .04657 -.03627 1.287 149.21 -190.98)" d="m-88.553 238.01a73.386 16.634 0 1 1 -146.77 0 73.386 16.634 0 1 1 146.77 0z" fill="url(#c)" fill-rule="evenodd" filter="url(#h)"/>
 <g transform="matrix(.46739 0 0 .46979 -249.39 -4.2366)">
  <path d="m614.19 140.68c17.85-15.916 40.907 2.0212 26.143 12.09-18.579 8.1231-25.61 20.404-28.102 34.32-6.0198 3.9959-7.7923 0.95863-9.1483-2.7685l-2.3906 6.0499c-6.966-21.45 0.42361-36.18 13.498-49.691z" fill="#e2b08f" fill-rule="evenodd"/>
  <path d="m631.7 133.63c-5.1538 30.455 23.404 35.038 53.702 3.316l-53.702-3.316z" fill="#e2b08f" fill-rule="evenodd"/>
  <g transform="matrix(.99635 0 0 1.0177 766.36 -154.94)" fill="#d29e84" fill-rule="evenodd">
   <path d="m-147.13 230.96c-0.60823-26.822 7.6761-47.345 43.341-48.474l28.514 6.2731c17.814 10.526 57.376 19.803 39.92 76.418 23.124 1.7335 1.6581 33.914-16.538 18.819-18.963 8.1382-37.303 10.671-54.747 5.1325-12.602 1.1981-25.265 2.5666-31.936-12.546-26.819-16.983-22.527-31.661-8.5542-45.622z"/>
   <path d="m-140.29 221.84c-11.255-18.328-24.326-2.2191-13.611 17.108"/>
  </g>
  <g transform="matrix(1 0 0 .96904 766.45 -142.66)" fill="#e2b08f" fill-rule="evenodd">
   <path d="m-147.13 230.96c-0.60823-26.822 7.6761-47.345 43.341-48.474l28.514 6.2731c17.817 10.526 69.427 18.421 39.92 76.418 23.124 1.7335 1.6581 33.914-16.538 18.819-18.963 8.1382-37.303 10.671-54.747 5.1325-12.602 1.1981-25.265 2.5666-31.936-12.546-26.819-16.983-22.527-31.661-8.5542-45.622z"/>
   <path d="m-140.29 221.84c-11.255-18.328-24.326-2.2191-13.611 17.108"/>
  </g>
  <path transform="translate(565.14 -27.965)" d="m134.59 129.45a13.402 13.687 0 1 1 -26.803 0 13.402 13.687 0 1 1 26.803 0z" fill="#fff" fill-rule="evenodd"/>
  <path transform="translate(567.99 -30.816)" d="m76.418 119.76a10.835 11.406 0 1 1 -21.671 0 10.835 11.406 0 1 1 21.671 0z" fill="#fff" fill-rule="evenodd"/>
  <path transform="matrix(.89474 0 0 .9 576.04 -19.981)" d="m76.418 119.76a10.835 11.406 0 1 1 -21.671 0 10.835 11.406 0 1 1 21.671 0z" fill="#008080" fill-rule="evenodd"/>
  <path transform="matrix(1.1053 0 0 1.075 612.98 -28.678)" d="m76.418 119.76a10.835 11.406 0 1 1 -21.671 0 10.835 11.406 0 1 1 21.671 0z" fill="#008080" fill-rule="evenodd"/>
  <path transform="matrix(.73684 0 0 .7 586.39 3.4008)" d="m76.418 119.76a10.835 11.406 0 1 1 -21.671 0 10.835 11.406 0 1 1 21.671 0z" fill="#1a1a1a" fill-rule="evenodd"/>
  <path transform="matrix(.89474 0 0 .825 626.79 1.2623)" d="m76.418 119.76a10.835 11.406 0 1 1 -21.671 0 10.835 11.406 0 1 1 21.671 0z" fill="#1a1a1a" fill-rule="evenodd"/>
  <path transform="matrix(.29071 0 0 .3125 603.38 44.782)" d="m134.59 129.45a13.402 13.687 0 1 1 -26.803 0 13.402 13.687 0 1 1 26.803 0z" fill="#fff" fill-rule="evenodd"/>
  <path transform="matrix(.31198 0 0 .3125 652.98 55.617)" d="m134.59 129.45a13.402 13.687 0 1 1 -26.803 0 13.402 13.687 0 1 1 26.803 0z" fill="#fff" fill-rule="evenodd"/>
  <path transform="matrix(.12392 0 0 .14583 618.99 69.779)" d="m134.59 129.45a13.402 13.687 0 1 1 -26.803 0 13.402 13.687 0 1 1 26.803 0z" fill="#fff" fill-rule="evenodd"/>
  <path transform="matrix(.14519 0 0 .14583 667.45 81.185)" d="m134.59 129.45a13.402 13.687 0 1 1 -26.803 0 13.402 13.687 0 1 1 26.803 0z" fill="#fff" fill-rule="evenodd"/>
  <path d="m692.33 70.699c10.043 2.7984 16.544 8.6321 15.969 20.531 1.9581-10.994 0.16629-20.074-15.969-20.531z" fill="#1a1a1a" fill-rule="evenodd" stroke="#000" stroke-width="2.1341"/>
  <path d="m725.96 117.46c14.411-0.31796 15.794 5.2852-0.57028 14.828" fill="#e1a480" fill-rule="evenodd"/>
  <path d="m624.29 72.616c-9.946-8.4116-14.695-4.4853-9.5851 12.781" fill="#e1a480" fill-rule="evenodd"/>
  <path d="m633.99 60.494c-4.2398-0.12135-6.4165 3.9025-8.4688 8.1562v0.5625c4.2621-5.8284 9.7921-7.8528 17.094-4.5625-3.6352-2.8922-6.4042-4.0927-8.625-4.1562z" fill-rule="evenodd" stroke="#000" stroke-width="2.1341"/>
  <path transform="translate(563.43 -27.965)" d="m136.3 149.7a11.12 11.12 0 1 1 -22.241 0 11.12 11.12 0 1 1 22.241 0z" fill="#e1b08f" fill-rule="evenodd"/>
  <path transform="matrix(.87179 0 0 .87179 511.33 -31.869)" d="m136.3 149.7a11.12 11.12 0 1 1 -22.241 0 11.12 11.12 0 1 1 22.241 0z" fill="#e1b08f" fill-rule="evenodd"/>
  <path transform="matrix(.66667 0 0 .79487 537.01 -17.787)" d="m136.3 149.7a11.12 11.12 0 1 1 -22.241 0 11.12 11.12 0 1 1 22.241 0z" fill="#ef9791" fill-rule="evenodd" filter="url(#b)"/>
  <path transform="matrix(.66667 0 0 .79487 606.01 2.7428)" d="m136.3 149.7a11.12 11.12 0 1 1 -22.241 0 11.12 11.12 0 1 1 22.241 0z" fill="#ef9791" fill-rule="evenodd" filter="url(#b)"/>
  <path transform="matrix(.76555 -.20724 .26131 .96526 556.83 5.4277)" d="m131.73 142.57a8.2691 2.8514 0 1 1 -16.538 0 8.2691 2.8514 0 1 1 16.538 0z" fill="#ecbda5" fill-rule="evenodd"/>
  <path transform="matrix(-.42823 -.45214 -.6792 .72963 772.45 48.157)" d="m131.73 142.57a8.2691 2.8514 0 1 1 -16.538 0 8.2691 2.8514 0 1 1 16.538 0z" fill="#ecbda5" fill-rule="evenodd"/>
  <path transform="matrix(.74669 .26735 -.33709 .94147 609.69 -62.894)" d="m131.73 142.57a8.2691 2.8514 0 1 1 -16.538 0 8.2691 2.8514 0 1 1 16.538 0z" fill="#ecbda5" fill-rule="evenodd"/>
  <path d="m644.98 103.77 4.5622 8.5542 9.1245-3.4217c-5.6428 0.4503-9.4851-2.7004-13.687-5.1325z" fill="#cd9880" fill-rule="evenodd"/>
  <path d="m623.72 58.799c10.841-24.006 23.68-2.07 35.928 6.2731 67.367-16.596 60.051 20.65 65.012 49.044 68.49-76.759-88.057-133.03-100.94-55.317z" fill="#e1a480" fill-rule="evenodd"/>
  <path d="m622.25 61.938c10.886-24.767 23.778-2.1356 36.076 6.472 67.646-17.122 60.299 21.304 65.281 50.599 68.774-79.193-88.422-137.24-101.36-57.071z" fill="url(#g)" fill-rule="evenodd"/>
  <path d="m648.22 115.04c-17.007-10.733-26.126 5.3815-7.8279 14.188 4.7193 5.0998 6.1576 4.4686 10.763 1.957 17.271 2.5624 23.087-18.147-2.9354-16.145z" fill="#f9c3d2" fill-rule="evenodd" stroke="#dd898f" stroke-width="4.2682"/>
  <path transform="matrix(.1861 0 0 .1861 613.7 89.717)" d="m136.3 149.7a11.12 11.12 0 1 1 -22.241 0 11.12 11.12 0 1 1 22.241 0z" fill="#e1b08f" fill-rule="evenodd"/>
  <path transform="matrix(.1861 0 0 .1861 636.69 95.099)" d="m136.3 149.7a11.12 11.12 0 1 1 -22.241 0 11.12 11.12 0 1 1 22.241 0z" fill="#e1b08f" fill-rule="evenodd"/>
  <path transform="matrix(.75586 .10529 -.10661 .76534 789.77 -7.0248)" d="m-152.64 191.04a9.2956 5.3817 0 1 1 -18.591 0 9.2956 5.3817 0 1 1 18.591 0z" fill="#f9c3d2" fill-rule="evenodd" stroke="#c84d67" stroke-width="5.8359"/>
  <path d="m645.28 117.98c1.5896-1.2255 8.4064 0.0465 9.2956 5.3817l-9.2956-5.3817z" fill="#fff" fill-rule="evenodd"/>
  <path d="m639.41 121.4c-14.467 11.063 19.402 21.086 13.21 3.9139" fill="none" stroke="#ba3d70" stroke-width="4.2682"/>
  <path d="m659.82 231.95c10.598 19.087 22.763 28.249 35.463 34.03-1.3107 7.3298 2.167 10.735 20.47 1.9869 12.899-9.3622 10.293-20.889-5.1417-16.033-4.3389-17.139-8.7492-34.237-33.884-39.769-15.199 0.065-17.006 9.2746-16.908 19.785z" fill="#e2af8e" fill-rule="evenodd"/>
  <path d="m659.82 231.95c10.598 19.087 22.763 28.249 35.463 34.03-1.3107 7.3298 2.167 10.735 20.47 1.9869 12.899-9.3622 10.293-20.889-5.1417-16.033-4.3389-17.139-8.7492-34.237-33.884-39.769-15.199 0.065-17.006 9.2746-16.908 19.785z" fill="#e1a683" fill-rule="evenodd"/>
  <path d="m626.06 230.68c-15.009 15.496-30.257 21.824-45.587 25.028 0.34956 6.7946-4.1314 9.3099-23.568-1.4247-13.201-10.439-8.4474-20.393 8.3352-13.606 7.5948-14.726 15.265-29.405 44.685-30.435 17.26 2.4425 17.882 11.005 16.135 20.438z" fill="#e2af8e" fill-rule="evenodd"/>
  <path d="m616.91 178.65 74.365 17.123c2.9702 11.87 5.9641 22.283-3.9139 31.801-21.577-8.3708-19.471 3.7944-25.441 12.231-21.924 6.1688-31.407 2.003-40.607-3.914-1.7164-12.315-6.7806-24.999-23.973-20.548 5.9624-22.255 24.939-16.065 19.57-36.693z" fill="#fff" fill-rule="evenodd"/>
  <path d="m611.22 186.96-35.41 22.619c2.5305 3.5338 17.693 12.94 28.972 7.0317 10.321 16.458 30.052 9.2006 33.801 5.9337 2.5648 1.5074 15.779 16.344 37.793-1.8942 5.2627 12.238 35.987 3.5595 37.306-4.2089l-20.373-16.854c-56.48-0.43008-66.557-3.6928-82.088-12.627z" fill="#f00" fill-rule="evenodd"/>
  <path d="m611.06 177.67c-6.6983 4.5657-7.9688 6.8355-24.484 24.576 12.255-0.30877 10.374-4.8354 14.102 0.57097 0.60921 6.0841 0.75353 21.834 15.938 6.8872 7.231-6.0668 7.8142 1.041 10.744 4.9552 8.0552 12.73 18.449 5.1535 22.238 0.06278 2.6289-3.6445 13.64-6.9226 13.921 1.8504 12.83 11.582 14.668 0.85575 16.301-2.2768 0.63579-8.925 8.7352-4.3402 16.488-0.38263 22.327 0.11478 12.71 4.1958 3.2245-4.3155l-8.7872-19.301c-65.552 9.7092-62.782-3.1233-79.686-12.627z" fill="#f7931e" fill-rule="evenodd"/>
  <path d="m611.55 176.69c-6.6983 4.5657-7.9688 6.8354-24.484 24.576 12.255-0.30879 10.374-4.8354 14.102 0.57095 0.60921 6.0841 0.75353 21.834 15.938 6.8872 7.231-6.0668 7.8142 1.041 10.744 4.9552 8.0552 12.73 18.449 5.1535 22.238 0.06278 2.6289-3.6445 13.64-6.9226 13.921 1.8504 12.83 11.582 14.668 0.85575 16.301-2.2768 0.63579-8.925 8.7352-4.3402 16.488-0.38263 21.975 1.0536 13.174 4.502 3.2245-4.3155l-8.7872-19.301c-65.552 9.7092-62.782-3.1233-79.686-12.627z" fill="#ff2a2a" fill-rule="evenodd"/>
  <path d="m610.06 178.86c2.2855-4.9128 1.3739-13.422 6.9389-19.503 1.9468-2.1274 4.2019-7.1438 14.099-26.698 8.0715 21.761 23.777 32.389 45.01 10.929l8.3171-1.4903c-13.577 15.568-0.08834 25.95 8.3171 32.291l-0.97848 18.381c-8.5542 1.1747-19.121 6.3555-26.419 3.4775-32.885 2.2067-44.977-8.1313-55.284-17.387z" fill="#ff2a2a" fill-rule="evenodd"/>
  <path d="m692.74 172.77-11.742-10.763-13.699 1.4677 7.3386 5.3816-14.677-2.9354 17.123 8.3171-20.059-2.9355 20.059 8.8064-11.742 1.4677 9.2956 2.4462s-22.505 6.3601-20.548 7.8279 37.672 0.48924 37.672 0.48924l0.97849-19.57z" fill="#f7790e" fill-rule="evenodd"/>
  <path d="m614.95 163.48-3.9139 13.21s11.742 11.253 12.231 8.8063-5.3817-11.253-5.3817-11.253l4.8924-0.97849-3.9139-4.4032 7.8279 0.97849-7.3386-5.3816 5.8709-11.742c-5.7848 9.3537-8.2734 14.11-10.274 10.763z" fill="#f7790e" fill-rule="evenodd"/>
  <path d="m702.76 152.73c-8.9189-23.509-32.669-9.7425-22.631 8.958 11.565 14.121 13.454 30.75 11.538 48.364 3.8985 5.2072 4.3293 3.3306 5.567 0.61426l5.4224 3.1638c10.957-24.73 6.1353-41.61 0.1034-61.1z" fill="#e2b08f" fill-rule="evenodd"/>
  <path d="m688.34 175.66-7.8894-10.711-9.2044 1.3272 4.9309 4.8663-9.8618-2.6544 11.505 7.5206-13.478-2.6544 13.478 7.963-7.8894 1.3272 6.2458 2.212s-15.121 5.751-13.807 7.0782 28.737-0.5361 28.737-0.5361l-2.7672-15.739z" fill="#f00" fill-rule="evenodd"/>
  <path d="m613.97 165.34-2.9354 10.088s8.8064 8.5936 9.1733 6.7254-4.0362-8.5936-4.0362-8.5936l3.6693-0.74726-2.9354-3.3627 5.8709 0.74726-5.504-4.11 4.4032-8.9672c-4.3386 7.1434-6.2051 10.776-7.7056 8.22z" fill="#f00" fill-rule="evenodd"/>
  <path d="m621.31 59.27c68.006-38.978 91.85 2.231 111.06 51.86l2.9354-4.4032c6.3982-61.926-59.509-111.18-113.5-52.349l-0.48924 4.8924z" fill="#f59525" fill-rule="evenodd"/>
  <path d="m620.82 59.759c68.006-38.978 91.85 2.231 111.06 51.86l2.9354-4.4032c10.987-62.931-62.908-114.83-113.5-52.349l-0.48924 4.8924z" fill="url(#f)" fill-rule="evenodd"/>
  <path d="m645.28 35.297 0.97849 11.742-13.699 11.253c-3.2237-5.4716-8.3219-9.8533-3.4247-23.484l16.145 0.48924z" fill="#fe3929" fill-rule="evenodd"/>
  <path d="m650.9 32.871 1.4449 12.259 16.874 5.4356c2.8942-8.9894 3.0999-20.102-4.5843-26.313l-13.735 8.6183z" fill="#fe3929" fill-rule="evenodd"/>
  <path d="m648.71 36.765a1.957 1.957 0 0 1 1.957 1.957v4.8924a1.957 1.957 0 0 1 -1.957 1.957 1.957 1.957 0 0 1 -1.957 -1.957v-4.8924a1.957 1.957 0 0 1 1.957 -1.957" fill="#f00" fill-rule="evenodd"/>
  <path d="m650.9 32.871 1.4449 12.259 16.874 5.4356c2.8942-8.9894 3.0999-20.102-4.5843-26.313l-13.735 8.6183z" fill="url(#e)" fill-rule="evenodd"/>
  <path d="m645.28 35.297 0.97849 11.742-13.699 11.253c-3.2237-5.4716-8.3219-9.8533-3.4247-23.484l16.145 0.48924z" fill="url(#d)" fill-rule="evenodd"/>
 </g>
</svg>
